<svg width="128" height="128" viewBox="0 0 128 128" fill="none" xmlns="http://www.w3.org/2000/svg">
<rect width="128" height="128" rx="15" fill="black"/>
<g filter="url(#filter0_d_2019_46)">
<path d="M26.6667 112C23.7333 112 21.2222 110.956 19.1333 108.867C17.0444 106.778 16 104.267 16 101.333V26.6667C16 23.7333 17.0444 21.2222 19.1333 19.1333C21.2222 17.0444 23.7333 16 26.6667 16H101.333C104.267 16 106.778 17.0444 108.867 19.1333C110.956 21.2222 112 23.7333 112 26.6667V101.333C112 104.267 110.956 106.778 108.867 108.867C106.778 110.956 104.267 112 101.333 112H26.6667ZM26.6667 101.333H101.333V26.6667H26.6667V101.333Z" fill="#FF4757"/>
<path d="M26.667 16.5H101.333C104.133 16.5 106.517 17.4914 108.513 19.4873C110.509 21.4832 111.5 23.8673 111.5 26.667V101.333C111.5 104.133 110.509 106.517 108.513 108.513C106.517 110.509 104.133 111.5 101.333 111.5H26.667C23.8673 111.5 21.4832 110.509 19.4873 108.513C17.4914 106.517 16.5 104.133 16.5 101.333V26.667C16.5 23.8673 17.4914 21.4832 19.4873 19.4873C21.4832 17.4914 23.8673 16.5 26.667 16.5ZM26.167 101.833H101.833V26.167H26.167V101.833Z" stroke="black"/>
</g>
<rect x="27" y="8.25806" width="28" height="13.7634" rx="6.88172" fill="#FF4757"/>
<path d="M81.4896 84.6351C81.4881 81.8723 79.2496 79.6696 76.4899 79.7153C73.7302 79.7609 71.4943 82.0375 71.4959 84.8003L76.4927 84.7177L81.4896 84.6351ZM88.5177 62.6704C89.7345 65.1307 92.7289 66.1056 95.2059 64.8479C97.6828 63.5902 98.7044 60.5761 97.4875 58.1158L93.0026 60.3931L88.5177 62.6704ZM76.4927 84.7177L71.4959 84.8003C71.4959 84.8478 71.4946 84.7983 71.5004 84.6985C71.5028 84.6572 71.5114 84.5121 71.5396 84.3189C71.5534 84.2243 71.5831 84.0381 71.6426 83.8061C71.6799 83.6608 71.8272 83.0834 72.2214 82.4355C72.4824 82.0068 74.0684 79.6345 77.1776 80.028C78.0145 80.2087 79.3253 80.8391 79.8018 81.2083C80.0949 81.4885 80.5325 82.0119 80.6879 82.2401C80.9723 82.6841 81.1162 83.0718 81.1636 83.2023C81.2281 83.3798 81.2685 83.524 81.2896 83.6035C81.3319 83.7628 81.3544 83.8831 81.3614 83.9208C81.3708 83.9717 81.3758 84.0051 81.377 84.0126C81.378 84.0194 81.3661 83.9335 81.3441 83.708C81.3239 83.5021 81.3001 83.2293 81.2738 82.8914C81.168 81.5333 81.0358 79.3071 80.9442 76.5993C80.7596 71.1402 80.7502 64.002 81.3867 58.177C81.709 55.2273 82.1677 52.9107 82.7159 51.3894C82.9901 50.6285 83.2015 50.3113 83.2474 50.2526C83.2748 50.2176 82.917 50.6846 82.0903 50.8734C80.4022 51.2591 80.2472 49.9183 82.1219 52.0785C83.6819 53.876 85.803 57.1815 88.5177 62.6704L93.0026 60.3931L97.4875 58.1158C94.6494 52.3773 92.0899 48.1889 89.7105 45.4471C87.6458 43.068 84.2923 40.1426 80.0155 41.1196C77.8944 41.6041 76.3947 42.9107 75.4162 44.162C74.4561 45.3897 73.7976 46.8054 73.3214 48.1268C72.369 50.77 71.8054 54.0152 71.4524 57.2457C70.7382 63.7812 70.7661 71.4775 70.9562 77.0971C71.0519 79.9287 71.1914 82.3028 71.3102 83.8275C71.3656 84.5388 71.427 85.2072 71.4923 85.6448C71.5043 85.725 71.5452 86.004 71.6285 86.3175C71.6531 86.4105 71.697 86.5661 71.7648 86.7527C71.8155 86.8923 71.9626 87.287 72.25 87.7358C72.407 87.9664 72.8461 88.4916 73.1406 88.7731C73.6186 89.1436 74.9308 89.7747 75.7691 89.9556C78.8812 90.3494 80.4698 87.9753 80.7332 87.5424C81.13 86.8905 81.2796 86.3066 81.3191 86.1527C81.3809 85.9121 81.4127 85.715 81.4284 85.6072C81.4604 85.3876 81.4723 85.2069 81.4773 85.1206C81.4883 84.9308 81.4897 84.7539 81.4896 84.6351L76.4927 84.7177Z" fill="#FF4757"/>
<path d="M62.827 46.3795L57.8801 45.9582C57.5273 62.5066 55.7787 72.4852 53.6798 77.7911C52.6159 80.4803 51.6884 81.3802 51.3685 81.5916C51.27 81.6567 51.3456 81.5823 51.561 81.5761C51.7684 81.57 51.8537 81.6347 51.7535 81.5827C51.4333 81.4167 50.5731 80.7492 49.4286 78.957C48.339 77.2508 47.2321 74.8988 46.2535 71.993C44.2975 66.1851 43.0258 58.6765 43.1922 50.8669L38.2454 50.4456L33.2985 50.0244C33.1072 58.9957 34.5513 67.7227 36.9147 74.7403C38.0958 78.2473 39.5495 81.4556 41.2377 84.0992C42.871 86.6568 45.0058 89.1286 47.7139 90.5333C50.7675 92.117 54.1639 92.1139 57.1006 90.1728C59.6923 88.4598 61.5259 85.5086 62.8893 82.0622C65.6448 75.0966 67.4144 63.6653 67.7738 46.8008L62.827 46.3795Z" fill="#FF4757"/>
<path d="M35.8938 44.9981C38.5965 44.9981 40.7875 42.0114 40.7875 38.3271C40.7875 34.6427 38.5965 31.656 35.8938 31.656C33.191 31.656 31 34.6427 31 38.3271C31 42.0114 33.191 44.9981 35.8938 44.9981Z" stroke="#FF4757" stroke-width="2" stroke-linecap="round" stroke-linejoin="round"/>
<defs>
<filter id="filter0_d_2019_46" x="12" y="16" width="104" height="104" filterUnits="userSpaceOnUse" color-interpolation-filters="sRGB">
<feFlood flood-opacity="0" result="BackgroundImageFix"/>
<feColorMatrix in="SourceAlpha" type="matrix" values="0 0 0 0 0 0 0 0 0 0 0 0 0 0 0 0 0 0 127 0" result="hardAlpha"/>
<feOffset dy="4"/>
<feGaussianBlur stdDeviation="2"/>
<feComposite in2="hardAlpha" operator="out"/>
<feColorMatrix type="matrix" values="0 0 0 0 0 0 0 0 0 0 0 0 0 0 0 0 0 0 0.25 0"/>
<feBlend mode="normal" in2="BackgroundImageFix" result="effect1_dropShadow_2019_46"/>
<feBlend mode="normal" in="SourceGraphic" in2="effect1_dropShadow_2019_46" result="shape"/>
</filter>
</defs>
</svg>
